# xmcd
#
# Track frame offsets:
#	150
#	6037
#	25917
#	41204
#	59093
#	77450
#	92477
#	113477
#	131669
#	148508
#	164523
#	184402
#	204692
#	224576
#	245503
#	266783
#	288255
#	308854
#
# Disc length: 4385 seconds
#
# Revision: 1
# Processed by: cddbd v1.4PL0 Copyright (c) Steve Scherf et al.
# Submitted via: audiograbber 1.80.04
#
DISCID=0d111f12
DTITLE=Eduardo De Crescenzo - All the Best
DYEAR=1997
DGENRE=Pop
TTITLE0=Uomini Semplici
TTITLE1=Al Piano Bar
TTITLE2=Ancora
TTITLE3=Quando l'amore se ne va
TTITLE4=Mani
TTITLE5=Amico che voli
TTITLE6=Metropolitana
TTITLE7=Quantu tiempo ce vo'
TTITLE8=Dove c'è il mare
TTITLE9=Via con me
TTITLE10=Foglia di te
TTITLE11=L'odore del mare
TTITLE12=Nudi nudi
TTITLE13=Il racconto della sera
TTITLE14=Mercati mercati
TTITLE15=C'è il sole
TTITLE16=E la musica va
TTITLE17=Occhi di marzo
EXTD=
EXTT0=
EXTT1=
EXTT2=
EXTT3=
EXTT4=
EXTT5=
EXTT6=
EXTT7=
EXTT8=
EXTT9=
EXTT10=
EXTT11=
EXTT12=
EXTT13=
EXTT14=
EXTT15=
EXTT16=
EXTT17=
PLAYORDER=
